<?xml version="1.0" encoding="utf-8"?>
<!-- Generator: Adobe Illustrator 20.1.0, SVG Export Plug-In . SVG Version: 6.00 Build 0)  -->
<svg version="1.1" id="Layer_1" xmlns="http://www.w3.org/2000/svg" xmlns:xlink="http://www.w3.org/1999/xlink" x="0px" y="0px"
	 viewBox="0 0 1474 501.3" style="enable-background:new 0 0 1474 501.3;" xml:space="preserve">
<style type="text/css">
	.st0{fill:#007BFF;}
	.st1{fill:none;stroke:#082E51;stroke-width:4;stroke-miterlimit:10;}
	.st2{fill:none;stroke:#007BFF;stroke-width:4;stroke-miterlimit:10;}
	.st3{fill:none;stroke:#082E51;stroke-width:4;stroke-linecap:round;stroke-linejoin:round;stroke-miterlimit:10;}
	.st4{fill:#082E51;}
	.st5{opacity:0.12;fill:#007BFF;enable-background:new    ;}
</style>
<path class="st0" d="M741.8,56.8l1.6,19.9c0.5,6.2,5.9,10.8,12.1,10.3l19.9-1.6L741.8,56.8z"/>
<rect x="1282.4" y="183.9" class="st1" width="174" height="100"/>
<rect x="22.7" y="183.9" class="st1" width="174" height="100"/>
<polygon class="st2" points="774.3,180.9 674.3,180.9 674.3,55.6 741.8,55.6 774.3,84.1 "/>
<g>
	<path pointer-events="none" class="st3" d="M1256,236.8l-129,0.2"/>
	<path pointer-events="none" class="st4" d="M1249.5,250.2l6.5-13.5l-6.9-13.2l27,13.1L1249.5,250.2z"/>
</g>
<g>
	<path pointer-events="none" class="st3" d="M328.8,233.8l-129,0.2"/>
	<path pointer-events="none" class="st4" d="M322.3,247.2l6.5-13.5l-6.9-13.2l27,13.1L322.3,247.2z"/>
</g>
<g>
	<path pointer-events="none" class="st3" d="M612.9,328.4l-76.1-68.2"/>
	<path pointer-events="none" class="st4" d="M599.1,334l13.9-5.7l3.7-14.4l11.3,27.8L599.1,334z"/>
</g>
<g>
	<path pointer-events="none" class="st3" d="M923.9,278L848.6,347"/>
	<path pointer-events="none" class="st4" d="M928.2,292.2l-4.3-14.3l-14-5.1l28.8-8.6L928.2,292.2z"/>
</g>
<g>
	<path pointer-events="none" class="st3" d="M920.8,199.3l-134-70.6"/>
	<path pointer-events="none" class="st4" d="M908.8,208.2l12.1-8.9l0.1-14.9l17.8,24.2L908.8,208.2z"/>
</g>
<g>
	<path pointer-events="none" class="st3" d="M649.6,140l-112.8,66.3"/>
	<path pointer-events="none" class="st4" d="M650.7,154.8l-1.2-14.9l-12.6-7.9l29.9-2.4L650.7,154.8z"/>
</g>
<g>
	<g>
		<path class="st2" d="M834.6,369l-3.7-1.8l0.5-5c0.4-3.1,0.6-6.3,0.6-9.4c0-38.4-31.1-69.6-69.6-69.6c-13.5,0-26.8,3.9-38.1,11.3
			c-11,7.3-19.8,17.4-25.3,29.4l-2,4.2l-4.6-0.9c-3.6-0.7-7.3-1-10.9-1c-11.6,0-22.9,3.8-32.1,10.9c-9.1,7-15.8,16.6-19.2,27.6
			l-0.8,2.5l-2.4,1.1c-4.8,2.2-9.3,5.3-13,9c-17.3,17.3-17.3,45.3-0.1,62.6c8.3,8.3,19.6,13,31.4,13H815c24.4,0,44.3-19.8,44.3-44.2
			C859.3,391.9,849.7,376.5,834.6,369z"/>
	</g>
</g>
<g>
	<path class="st4" d="M169,68.8c3.5,0.8,5.9,2.6,5.9,6.6c0,3.7-2.9,6.9-8.8,6.9c-5.5,0-9-2.9-9.4-6.9h3c0.5,3.2,3.3,4.3,6.5,4.3
		c3.2,0,5.7-1.5,5.7-4.2c0-2.5-1.7-3.5-4-4c-1.2-0.3-3.5-0.7-4.6-0.9c-3.4-0.7-5.7-2.5-5.7-5.9c0-3.6,2.9-6.5,8.2-6.5
		c4.8,0,7.9,2.6,8.5,6.3h-3c-0.6-2.4-2.2-3.6-5.6-3.6c-2.8,0-5.2,1.3-5.2,3.7c0,2.3,2,3,4,3.4C165.6,68.1,167.7,68.5,169,68.8z"/>
	<path class="st4" d="M193.7,73.6h-12.6c0.1,3.9,1.9,6.3,5.3,6.3c2.3,0,3.7-1,4.2-2.6h2.8c-0.5,2.8-2.9,5-7,5c-5.1,0-8-3.8-8-8.8
		s2.9-8.5,7.9-8.5c4.9,0,7.3,3.6,7.4,7.7V73.6z M181.3,71.3h9.5c-0.2-2.1-1.8-3.9-4.5-3.9C183.3,67.4,181.7,69.2,181.3,71.3z"/>
	<path class="st4" d="M207.4,68h-1.4c-3.3,0-5.3,2-5.3,5.6v8.2H198V65.4h2.7v2h0.7c0.8-1,2.4-2,4.8-2h1.2V68z"/>
	<path class="st4" d="M211.1,61.1v-3h2.9v3H211.1z M213.9,81.9h-2.8V65.4h2.8V81.9z"/>
	<path class="st4" d="M229.9,80.1h-0.7c-1,1.3-2.8,2.2-5.1,2.2c-3.8,0-5.9-2.6-5.9-5.4c0-2.6,1.7-5.5,6.3-5.5h5.4v-0.7
		c0-2-1.1-3.4-4-3.4c-2.5,0-3.7,0.9-3.8,2.4h-2.8c0.2-3,2.8-4.8,6.5-4.8c4.2,0,6.8,2,6.8,5.7v11.2h-2.6V80.1z M229.8,75.2v-1.5h-4.9
		c-2.7,0-4,1.2-4,3.1c0,1.9,1.4,3,3.8,3C227.4,79.9,229.8,77.8,229.8,75.2z"/>
	<path class="st4" d="M240.4,58.1v23.8h-2.8V58.1H240.4z"/>
	<path class="st4" d="M245.7,61.1v-3h2.9v3H245.7z M248.6,81.9h-2.8V65.4h2.8V81.9z"/>
	<path class="st4" d="M252.9,81.9v-3.1l10-10.2v-0.7h-9.5v-2.4h13v3.1l-10,10.2v0.7h10.1v2.4H252.9z"/>
	<path class="st4" d="M281.4,80.1h-0.7c-1,1.3-2.8,2.2-5.1,2.2c-3.8,0-5.9-2.6-5.9-5.4c0-2.6,1.7-5.5,6.3-5.5h5.4v-0.7
		c0-2-1.1-3.4-4-3.4c-2.5,0-3.7,0.9-3.8,2.4h-2.8c0.2-3,2.8-4.8,6.5-4.8c4.2,0,6.8,2,6.8,5.7v11.2h-2.6V80.1z M281.3,75.2v-1.5h-4.9
		c-2.7,0-4,1.2-4,3.1c0,1.9,1.4,3,3.8,3C278.9,79.9,281.3,77.8,281.3,75.2z"/>
	<path class="st4" d="M297,65.4v2.4h-4.2v9.1c0,1.7,0.7,2.5,2.9,2.5h1.2v2.5h-1.3c-3.6,0-5.7-1.1-5.7-4.6v-9.5h-2.8v-2.4h2.8v-5h2.8
		v5H297z"/>
	<path class="st4" d="M301.6,61.1v-3h2.9v3H301.6z M304.5,81.9h-2.8V65.4h2.8V81.9z"/>
	<path class="st4" d="M325.1,73.6c0,4.9-3,8.7-8.1,8.7c-5.2,0-8.1-3.8-8.1-8.7s2.9-8.7,8.1-8.7C322.2,65,325.1,68.8,325.1,73.6z
		 M322.3,73.6c0-3.2-1.7-6.2-5.3-6.2c-3.7,0-5.3,3-5.3,6.2s1.7,6.2,5.3,6.2C320.6,79.9,322.3,76.9,322.3,73.6z"/>
	<path class="st4" d="M341.3,81.9V72c0-3-1.4-4.5-4.2-4.5c-2.9,0-4.9,2.6-4.9,5.5v8.9h-2.8V65.4h2.7v1.8h0.7c0.9-1.3,2.7-2.2,5-2.2
		c4.1,0,6.3,2.5,6.3,6.4v10.5H341.3z"/>
	<path class="st4" d="M358.3,61.1v-3h2.9v3H358.3z M361.2,81.9h-2.8V65.4h2.8V81.9z"/>
	<path class="st4" d="M378.5,81.9V72c0-3-1.4-4.5-4.2-4.5c-2.9,0-4.9,2.6-4.9,5.5v8.9h-2.8V65.4h2.7v1.8h0.7c0.9-1.3,2.7-2.2,5-2.2
		c4.1,0,6.3,2.5,6.3,6.4v10.5H378.5z"/>
	<path class="st4" d="M405.9,80.1h-0.7c-1,1.3-2.8,2.2-5.1,2.2c-3.8,0-5.9-2.6-5.9-5.4c0-2.6,1.7-5.5,6.3-5.5h5.4v-0.7
		c0-2-1.1-3.4-4-3.4c-2.5,0-3.7,0.9-3.8,2.4h-2.8c0.2-3,2.8-4.8,6.5-4.8c4.2,0,6.8,2,6.8,5.7v11.2h-2.6V80.1z M405.8,75.2v-1.5h-4.9
		c-2.7,0-4,1.2-4,3.1c0,1.9,1.4,3,3.8,3C403.5,79.9,405.8,77.8,405.8,75.2z"/>
	<path class="st4" d="M222.4,100.3v1.8h0.7c0.9-1.1,2.5-2.2,5.1-2.2c4.5,0,7.2,3.8,7.2,8.7c0,5-2.7,8.7-7.2,8.7c-2.6,0-4.2-1-5-2.2
		h-0.7v8.3h-2.8v-23H222.4z M222.5,108.5c0,3.2,1.5,6.2,5.2,6.2c3.3,0,5.1-2.6,5.1-6.2c0-3.7-1.8-6.2-5.1-6.2
		C224,102.2,222.5,105.3,222.5,108.5z"/>
	<path class="st4" d="M249.3,102.9h-1.4c-3.3,0-5.3,2-5.3,5.6v8.2h-2.8v-16.5h2.7v2h0.7c0.8-1,2.4-2,4.8-2h1.2V102.9z"/>
	<path class="st4" d="M268.1,108.5c0,4.9-3,8.7-8.1,8.7c-5.2,0-8.1-3.8-8.1-8.7s2.9-8.7,8.1-8.7C265.1,99.8,268.1,103.6,268.1,108.5
		z M265.3,108.5c0-3.2-1.7-6.2-5.3-6.2c-3.7,0-5.3,3-5.3,6.2s1.7,6.2,5.3,6.2C263.6,114.7,265.3,111.7,265.3,108.5z"/>
	<path class="st4" d="M287.2,100.3v15.7c0,4.6-2.9,7.6-7.7,7.6c-4.2,0-7-1.8-7.5-5h2.7c0.5,2,2.2,2.7,4.7,2.7c3.4,0,4.9-2.1,4.9-5.4
		v-1.3h-0.7c-0.9,1.1-2.5,2.2-4.9,2.2c-4.5,0-7.3-3.6-7.3-8.4c0-4.8,2.8-8.4,7.3-8.4c2.6,0,4.2,1,5,2.2h0.7v-1.8H287.2z
		 M284.5,108.3c0-3.2-1.7-6-5.2-6c-3.2,0-5.1,2.4-5.1,6c0,3.6,1.8,6,5.1,6C282.8,114.2,284.5,111.4,284.5,108.3z"/>
	<path class="st4" d="M302,102.9h-1.4c-3.3,0-5.3,2-5.3,5.6v8.2h-2.8v-16.5h2.7v2h0.7c0.8-1,2.4-2,4.8-2h1.2V102.9z"/>
	<path class="st4" d="M316.1,115h-0.7c-1,1.3-2.8,2.2-5.1,2.2c-3.8,0-5.9-2.6-5.9-5.4c0-2.6,1.7-5.5,6.3-5.5h5.4v-0.7
		c0-2-1.1-3.4-4-3.4c-2.5,0-3.7,0.9-3.8,2.4h-2.8c0.2-3,2.8-4.8,6.5-4.8c4.2,0,6.8,2,6.8,5.7v11.2h-2.6V115z M316,110.1v-1.5h-4.9
		c-2.7,0-4,1.2-4,3.1c0,1.9,1.4,3,3.8,3C313.7,114.7,316,112.7,316,110.1z"/>
	<path class="st4" d="M346.5,106.1v10.7h-2.8v-10.4c0-2.7-1-4.1-3.2-4.1c-2.6,0-4,2-4,4.8v9.6h-2.8v-10.3c0-2.7-1.1-4.1-3.1-4.1
		c-2.7,0-4.1,2.3-4.1,5.3v9.1h-2.8v-16.5h2.7v1.6h0.7c0.8-1.3,2.1-2,4.2-2c2,0,3.5,0.7,4.3,2.2h0.7c1-1.5,2.6-2.2,4.6-2.2
		C344.9,99.8,346.5,102.3,346.5,106.1z"/>
</g>
<g>
	<path class="st4" d="M508.6,139.9l1.9,0.3c2.9,0.5,4.7,2,4.7,5c0,2.7-2.3,5.2-6.8,5.2c-4.7,0-7-2.1-7.3-5.2h2.8
		c0.3,1.9,1.9,2.8,4.4,2.8c2.5,0,4.1-0.9,4.1-2.7c0-1.4-0.9-2.2-3-2.6l-3.7-0.6c-2.4-0.4-4-1.7-4-4.2c0-2.7,2.1-4.9,6.5-4.9
		c3.9,0,6.1,1.8,6.5,4.7h-2.8c-0.2-1.6-1.8-2.3-3.9-2.3c-2.1,0-3.6,0.8-3.6,2.2c0,1.3,0.8,1.8,2.5,2L508.6,139.9z"/>
	<path class="st4" d="M529.7,148.1H529c-1,1.3-2.8,2.2-5.1,2.2c-3.8,0-5.9-2.6-5.9-5.4c0-2.6,1.7-5.5,6.3-5.5h5.4v-0.7
		c0-2-1.1-3.4-4-3.4c-2.5,0-3.7,0.9-3.8,2.4H519c0.2-3,2.8-4.8,6.5-4.8c4.2,0,6.8,2,6.8,5.7v11.2h-2.6V148.1z M529.6,143.2v-1.5
		h-4.9c-2.7,0-4,1.2-4,3.1c0,1.9,1.4,3,3.8,3C527.3,147.9,529.6,145.8,529.6,143.2z"/>
	<path class="st4" d="M535.5,133.4h2.9l4.6,13.9h1.3l4.4-13.9h2.9l-5.5,16.5h-5.2L535.5,133.4z"/>
	<path class="st4" d="M569.1,141.6h-12.6c0.1,3.9,1.9,6.3,5.3,6.3c2.3,0,3.7-1,4.2-2.6h2.8c-0.5,2.8-2.9,5-7,5c-5.1,0-8-3.8-8-8.8
		s2.9-8.5,7.9-8.5c4.9,0,7.3,3.6,7.4,7.7V141.6z M556.7,139.3h9.5c-0.2-2.1-1.8-3.9-4.5-3.9C558.7,135.4,557,137.2,556.7,139.3z"/>
</g>
<g>
	<path class="st4" d="M497.4,341l1.9,0.3c2.9,0.5,4.7,2,4.7,5c0,2.7-2.3,5.2-6.8,5.2c-4.7,0-7-2.1-7.3-5.2h2.8
		c0.3,1.9,1.9,2.8,4.4,2.8s4.1-0.9,4.1-2.7c0-1.4-0.9-2.2-3-2.6l-3.7-0.6c-2.4-0.4-4-1.7-4-4.2c0-2.7,2.1-4.9,6.5-4.9
		c3.9,0,6.1,1.8,6.5,4.7h-2.8c-0.2-1.6-1.8-2.3-3.9-2.3c-2.1,0-3.6,0.8-3.6,2.2c0,1.3,0.8,1.8,2.5,2L497.4,341z"/>
	<path class="st4" d="M522.4,342.8h-12.6c0.1,3.9,1.9,6.3,5.3,6.3c2.3,0,3.7-1,4.2-2.6h2.8c-0.5,2.8-2.9,5-7,5c-5.1,0-8-3.8-8-8.8
		s2.9-8.5,7.9-8.5c4.9,0,7.3,3.6,7.4,7.7V342.8z M510,340.4h9.5c-0.2-2.1-1.8-3.9-4.5-3.9C512,336.5,510.3,338.3,510,340.4z"/>
	<path class="st4" d="M538.5,351v-9.9c0-3-1.4-4.5-4.2-4.5c-2.9,0-4.9,2.6-4.9,5.5v8.9h-2.8v-16.5h2.7v1.8h0.7
		c0.9-1.3,2.7-2.2,5-2.2c4.1,0,6.3,2.5,6.3,6.4V351H538.5z"/>
	<path class="st4" d="M561.2,327.3V351h-2.7v-1.8h-0.7c-0.9,1.1-2.5,2.2-5.1,2.2c-4.5,0-7.2-3.8-7.2-8.7c0-5,2.7-8.7,7.2-8.7
		c2.6,0,4.1,1,5,2.2h0.7v-9.1H561.2z M558.4,342.8c0-3.2-1.5-6.2-5.2-6.2c-3.3,0-5.1,2.6-5.1,6.2c0,3.7,1.8,6.2,5.1,6.2
		C556.9,349,558.4,346,558.4,342.8z"/>
</g>
<g>
	<path class="st4" d="M904.3,349.3h-0.7c-1,1.3-2.8,2.2-5.1,2.2c-3.8,0-5.9-2.6-5.9-5.4c0-2.6,1.7-5.5,6.3-5.5h5.4V340
		c0-2-1.1-3.4-4-3.4c-2.5,0-3.7,0.9-3.8,2.4h-2.8c0.2-3,2.8-4.8,6.5-4.8c4.2,0,6.8,2,6.8,5.7V351h-2.6V349.3z M904.2,344.4v-1.5
		h-4.9c-2.7,0-4,1.2-4,3.1c0,1.9,1.4,3,3.8,3C901.9,349,904.2,347,904.2,344.4z"/>
	<path class="st4" d="M926,346.1c-0.6,3.2-3.1,5.4-6.9,5.4c-5.1,0-8-3.8-8-8.7c0-5,2.9-8.7,8-8.7c3.9,0,6.3,2.2,6.8,5.2h-2.8
		c-0.5-1.7-1.8-2.8-4.1-2.8c-3.7,0-5.2,2.9-5.2,6.2c0,3.3,1.5,6.3,5.2,6.3c2.4,0,3.7-1.1,4.2-3H926z"/>
	<path class="st4" d="M944.1,346.1c-0.6,3.2-3.1,5.4-6.9,5.4c-5.1,0-8-3.8-8-8.7c0-5,2.9-8.7,8-8.7c3.9,0,6.3,2.2,6.8,5.2h-2.8
		c-0.5-1.7-1.8-2.8-4.1-2.8c-3.7,0-5.2,2.9-5.2,6.2c0,3.3,1.5,6.3,5.2,6.3c2.4,0,3.7-1.1,4.2-3H944.1z"/>
	<path class="st4" d="M962.5,342.8h-12.6c0.1,3.9,1.9,6.3,5.3,6.3c2.3,0,3.7-1,4.2-2.6h2.8c-0.5,2.8-2.9,5-7,5c-5.1,0-8-3.8-8-8.8
		s2.9-8.5,7.9-8.5c4.9,0,7.3,3.6,7.4,7.7V342.8z M950.1,340.4h9.5c-0.2-2.1-1.8-3.9-4.5-3.9C952.1,336.5,950.5,338.3,950.1,340.4z"
		/>
	<path class="st4" d="M969.5,334.5v1.8h0.7c0.9-1.1,2.5-2.2,5.1-2.2c4.5,0,7.2,3.8,7.2,8.7c0,5-2.7,8.7-7.2,8.7c-2.6,0-4.2-1-5-2.2
		h-0.7v8.3h-2.8v-23H969.5z M969.6,342.8c0,3.2,1.5,6.2,5.2,6.2c3.3,0,5.1-2.6,5.1-6.2c0-3.7-1.8-6.2-5.1-6.2
		C971.1,336.5,969.6,339.6,969.6,342.8z"/>
	<path class="st4" d="M994.9,334.5v2.4h-4.2v9.1c0,1.7,0.7,2.5,2.9,2.5h1.2v2.5h-1.3c-3.6,0-5.7-1.1-5.7-4.6V337h-2.8v-2.4h2.8v-5
		h2.8v5H994.9z"/>
</g>
<g>
	<path class="st4" d="M688.5,373.7V397h-4.6L673,377.5h-0.7V397h-2.9v-23.3h4.6l10.9,19.5h0.7v-19.5H688.5z"/>
	<path class="st4" d="M708.5,388.8h-12.6c0.1,3.9,1.9,6.3,5.3,6.3c2.3,0,3.7-1,4.2-2.6h2.8c-0.5,2.8-2.9,5-7,5c-5.1,0-8-3.8-8-8.8
		s2.9-8.5,7.9-8.5c4.9,0,7.3,3.6,7.4,7.7V388.8z M696.1,386.4h9.5c-0.2-2.1-1.8-3.9-4.5-3.9C698.1,382.5,696.4,384.3,696.1,386.4z"
		/>
	<path class="st4" d="M720.8,380.5v2.4h-4.2v9.1c0,1.7,0.7,2.5,2.9,2.5h1.2v2.5h-1.3c-3.6,0-5.7-1.1-5.7-4.6V383H711v-2.4h2.8v-5
		h2.8v5H720.8z"/>
	<path class="st4" d="M735.8,385.9l2.7,8.1h0.7l1.9-13.5h2.7l-2.4,16.5h-4.3l-2.9-8.3h-0.7l-2.9,8.3h-4.3l-2.4-16.5h2.7l2,13.5h0.7
		l2.8-8.1H735.8z"/>
	<path class="st4" d="M763.1,388.8c0,4.9-3,8.7-8.1,8.7c-5.2,0-8.1-3.8-8.1-8.7s2.9-8.7,8.1-8.7
		C760.2,380.1,763.1,383.9,763.1,388.8z M760.3,388.8c0-3.2-1.7-6.2-5.3-6.2c-3.7,0-5.3,3-5.3,6.2s1.7,6.2,5.3,6.2
		C758.6,395,760.3,392,760.3,388.8z"/>
	<path class="st4" d="M776.9,383.2h-1.4c-3.3,0-5.3,2-5.3,5.6v8.2h-2.8v-16.5h2.7v2h0.7c0.8-1,2.4-2,4.8-2h1.2V383.2z"/>
	<path class="st4" d="M792.5,397l-4.7-9h-0.7l-3.8,4.2v4.8h-2.8v-23.8h2.8v15.6l7.8-8.3h3.3l-4.7,5.1l5.9,11.4H792.5z"/>
</g>
<g>
	<path class="st4" d="M888.1,126.1v23.8h-2.8v-23.8H888.1z"/>
	<path class="st4" d="M908.7,141.6c0,4.9-3,8.7-8.1,8.7c-5.2,0-8.1-3.8-8.1-8.7s2.9-8.7,8.1-8.7C905.7,133,908.7,136.8,908.7,141.6z
		 M905.9,141.6c0-3.2-1.7-6.2-5.3-6.2c-3.7,0-5.3,3-5.3,6.2s1.7,6.2,5.3,6.2C904.2,147.9,905.9,144.9,905.9,141.6z"/>
	<path class="st4" d="M923.5,148.1h-0.7c-1,1.3-2.8,2.2-5.1,2.2c-3.8,0-5.9-2.6-5.9-5.4c0-2.6,1.7-5.5,6.3-5.5h5.4v-0.7
		c0-2-1.1-3.4-4-3.4c-2.5,0-3.7,0.9-3.8,2.4h-2.8c0.2-3,2.8-4.8,6.5-4.8c4.2,0,6.8,2,6.8,5.7v11.2h-2.6V148.1z M923.4,143.2v-1.5
		h-4.9c-2.7,0-4,1.2-4,3.1c0,1.9,1.4,3,3.8,3C921.1,147.9,923.4,145.8,923.4,143.2z"/>
	<path class="st4" d="M946,126.1v23.8h-2.7v-1.8h-0.7c-0.9,1.1-2.5,2.2-5.1,2.2c-4.5,0-7.2-3.8-7.2-8.7c0-5,2.7-8.7,7.2-8.7
		c2.6,0,4.1,1,5,2.2h0.7v-9.1H946z M943.2,141.6c0-3.2-1.5-6.2-5.2-6.2c-3.3,0-5.1,2.6-5.1,6.2c0,3.7,1.8,6.2,5.1,6.2
		C941.7,147.9,943.2,144.9,943.2,141.6z"/>
</g>
<g>
	<path class="st4" d="M702.4,113.3v7.6h10.8v2.7h-10.8V134h-2.9v-23.3h16.3v2.7H702.4z"/>
	<path class="st4" d="M719.9,113.2v-3h2.9v3H719.9z M722.7,134h-2.8v-16.5h2.8V134z"/>
	<path class="st4" d="M730.9,110.2V134h-2.8v-23.8H730.9z"/>
	<path class="st4" d="M750.6,125.7H738c0.1,3.9,1.9,6.3,5.3,6.3c2.3,0,3.7-1,4.2-2.6h2.8c-0.5,2.8-2.9,5-7,5c-5.1,0-8-3.8-8-8.8
		s2.9-8.5,7.9-8.5c4.9,0,7.3,3.6,7.4,7.7V125.7z M738.2,123.4h9.5c-0.2-2.1-1.8-3.9-4.5-3.9C740.2,119.5,738.6,121.3,738.2,123.4z"
		/>
</g>
<g>
	<path class="st4" d="M723.6,235.6c0,6.7-3.8,12.1-10.9,12.1c-7.1,0-10.9-5.4-10.9-12.1c0-6.7,3.8-12.1,10.9-12.1
		C719.8,223.5,723.6,228.9,723.6,235.6z M720.7,235.6c0-4.9-2.4-9.4-7.9-9.4s-7.9,4.5-7.9,9.4s2.4,9.4,7.9,9.4
		S720.7,240.4,720.7,235.6z"/>
	<path class="st4" d="M738.7,223.9c4.9,0,7.7,2.5,7.7,6.8c0,2.9-1.2,4.9-3.6,6l3.7,10.6h-3l-3.5-9.9c-0.6,0.1-1.3,0.1-1.9,0.1h-6.8
		v9.8h-2.9v-23.3H738.7z M738.3,234.8c3.8,0,5.1-1.6,5.1-4.2c0-2.6-1.4-4.2-5.1-4.2h-7v8.3H738.3z"/>
</g>
<g>
	<path class="st4" d="M969.8,58.5c7.2,0,10.8,4.6,10.8,11.7c0,7-3.6,11.7-10.8,11.7h-8.7V58.5H969.8z M969.8,79.2
		c5.7,0,7.8-4.1,7.8-9s-2.2-9-7.8-9H964v18H969.8z"/>
	<path class="st4" d="M999.3,73.6h-12.6c0.1,3.9,1.9,6.3,5.3,6.3c2.3,0,3.7-1,4.2-2.6h2.8c-0.5,2.8-2.9,5-7,5c-5.1,0-8-3.8-8-8.8
		S987,65,992,65c4.9,0,7.3,3.6,7.4,7.7V73.6z M987,71.3h9.5c-0.2-2.1-1.8-3.9-4.5-3.9C988.9,67.4,987.3,69.2,987,71.3z"/>
	<path class="st4" d="M1009.8,71.9l1.9,0.3c2.9,0.5,4.7,2,4.7,5c0,2.7-2.3,5.2-6.8,5.2c-4.7,0-7-2.1-7.3-5.2h2.8
		c0.3,1.9,1.9,2.8,4.4,2.8s4.1-0.9,4.1-2.7c0-1.4-0.9-2.2-3-2.6l-3.7-0.6c-2.4-0.4-4-1.7-4-4.2c0-2.7,2.1-4.9,6.5-4.9
		c3.9,0,6.1,1.8,6.5,4.7h-2.8c-0.2-1.6-1.8-2.3-3.9-2.3c-2.1,0-3.6,0.8-3.6,2.2c0,1.3,0.8,1.8,2.5,2L1009.8,71.9z"/>
	<path class="st4" d="M1034.8,73.6h-12.6c0.1,3.9,1.9,6.3,5.3,6.3c2.3,0,3.7-1,4.2-2.6h2.8c-0.5,2.8-2.9,5-7,5c-5.1,0-8-3.8-8-8.8
		s2.9-8.5,7.9-8.5c4.9,0,7.3,3.6,7.4,7.7V73.6z M1022.4,71.3h9.5c-0.2-2.1-1.8-3.9-4.5-3.9C1024.4,67.4,1022.7,69.2,1022.4,71.3z"/>
	<path class="st4" d="M1048.5,68h-1.4c-3.3,0-5.3,2-5.3,5.6v8.2h-2.8V65.4h2.7v2h0.7c0.8-1,2.4-2,4.8-2h1.2V68z"/>
	<path class="st4" d="M1052.1,61.1v-3h2.9v3H1052.1z M1055,81.9h-2.8V65.4h2.8V81.9z"/>
	<path class="st4" d="M1070.9,80.1h-0.7c-1,1.3-2.8,2.2-5.1,2.2c-3.8,0-5.9-2.6-5.9-5.4c0-2.6,1.7-5.5,6.3-5.5h5.4v-0.7
		c0-2-1.1-3.4-4-3.4c-2.5,0-3.7,0.9-3.8,2.4h-2.8c0.2-3,2.8-4.8,6.5-4.8c4.2,0,6.8,2,6.8,5.7v11.2h-2.6V80.1z M1070.8,75.2v-1.5
		h-4.9c-2.7,0-4,1.2-4,3.1c0,1.9,1.4,3,3.8,3C1068.5,79.9,1070.8,77.8,1070.8,75.2z"/>
	<path class="st4" d="M1081.4,58.1v23.8h-2.8V58.1H1081.4z"/>
	<path class="st4" d="M1086.8,61.1v-3h2.9v3H1086.8z M1089.6,81.9h-2.8V65.4h2.8V81.9z"/>
	<path class="st4" d="M1094,81.9v-3.1l10-10.2v-0.7h-9.5v-2.4h13v3.1l-10,10.2v0.7h10.1v2.4H1094z"/>
	<path class="st4" d="M1122.4,80.1h-0.7c-1,1.3-2.8,2.2-5.1,2.2c-3.8,0-5.9-2.6-5.9-5.4c0-2.6,1.7-5.5,6.3-5.5h5.4v-0.7
		c0-2-1.1-3.4-4-3.4c-2.5,0-3.7,0.9-3.8,2.4h-2.8c0.2-3,2.8-4.8,6.5-4.8c4.2,0,6.8,2,6.8,5.7v11.2h-2.6V80.1z M1122.3,75.2v-1.5
		h-4.9c-2.7,0-4,1.2-4,3.1c0,1.9,1.4,3,3.8,3C1120,79.9,1122.3,77.8,1122.3,75.2z"/>
	<path class="st4" d="M1138.1,65.4v2.4h-4.2v9.1c0,1.7,0.7,2.5,2.9,2.5h1.2v2.5h-1.3c-3.6,0-5.7-1.1-5.7-4.6v-9.5h-2.8v-2.4h2.8v-5
		h2.8v5H1138.1z"/>
	<path class="st4" d="M1142.7,61.1v-3h2.9v3H1142.7z M1145.5,81.9h-2.8V65.4h2.8V81.9z"/>
	<path class="st4" d="M1166.2,73.6c0,4.9-3,8.7-8.1,8.7c-5.2,0-8.1-3.8-8.1-8.7s2.9-8.7,8.1-8.7C1163.2,65,1166.2,68.8,1166.2,73.6z
		 M1163.4,73.6c0-3.2-1.7-6.2-5.3-6.2c-3.7,0-5.3,3-5.3,6.2s1.7,6.2,5.3,6.2C1161.7,79.9,1163.4,76.9,1163.4,73.6z"/>
	<path class="st4" d="M1182.4,81.9V72c0-3-1.4-4.5-4.2-4.5c-2.9,0-4.9,2.6-4.9,5.5v8.9h-2.8V65.4h2.7v1.8h0.7c0.9-1.3,2.7-2.2,5-2.2
		c4.1,0,6.3,2.5,6.3,6.4v10.5H1182.4z"/>
	<path class="st4" d="M1199.4,61.1v-3h2.9v3H1199.4z M1202.2,81.9h-2.8V65.4h2.8V81.9z"/>
	<path class="st4" d="M1219.5,81.9V72c0-3-1.4-4.5-4.2-4.5c-2.9,0-4.9,2.6-4.9,5.5v8.9h-2.8V65.4h2.7v1.8h0.7c0.9-1.3,2.7-2.2,5-2.2
		c4.1,0,6.3,2.5,6.3,6.4v10.5H1219.5z"/>
	<path class="st4" d="M1244.5,65.4v2.4h-4.2v9.1c0,1.7,0.7,2.5,2.9,2.5h1.2v2.5h-1.3c-3.6,0-5.7-1.1-5.7-4.6v-9.5h-2.8v-2.4h2.8v-5
		h2.8v5H1244.5z"/>
	<path class="st4" d="M1260.9,81.9V72c0-3-1.4-4.5-4.2-4.5c-2.9,0-4.9,2.6-4.9,5.5v8.9h-2.8V58.1h2.8v9.1h0.7
		c0.9-1.3,2.7-2.2,4.9-2.2c4,0,6.2,2.5,6.2,6.4v10.5H1260.9z"/>
	<path class="st4" d="M1283.1,73.6h-12.6c0.1,3.9,1.9,6.3,5.3,6.3c2.3,0,3.7-1,4.2-2.6h2.8c-0.5,2.8-2.9,5-7,5c-5.1,0-8-3.8-8-8.8
		s2.9-8.5,7.9-8.5c4.9,0,7.3,3.6,7.4,7.7V73.6z M1270.7,71.3h9.5c-0.2-2.1-1.8-3.9-4.5-3.9C1272.7,67.4,1271,69.2,1270.7,71.3z"/>
	<path class="st4" d="M1302.6,71.9l1.9,0.3c2.9,0.5,4.7,2,4.7,5c0,2.7-2.3,5.2-6.8,5.2c-4.7,0-7-2.1-7.3-5.2h2.8
		c0.3,1.9,1.9,2.8,4.4,2.8s4.1-0.9,4.1-2.7c0-1.4-0.9-2.2-3-2.6l-3.7-0.6c-2.4-0.4-4-1.7-4-4.2c0-2.7,2.1-4.9,6.5-4.9
		c3.9,0,6.1,1.8,6.5,4.7h-2.8c-0.2-1.6-1.8-2.3-3.9-2.3c-2.1,0-3.6,0.8-3.6,2.2c0,1.3,0.8,1.8,2.5,2L1302.6,71.9z"/>
	<path class="st4" d="M1323.8,80.1h-0.7c-1,1.3-2.8,2.2-5.1,2.2c-3.8,0-5.9-2.6-5.9-5.4c0-2.6,1.7-5.5,6.3-5.5h5.4v-0.7
		c0-2-1.1-3.4-4-3.4c-2.5,0-3.7,0.9-3.8,2.4h-2.8c0.2-3,2.8-4.8,6.5-4.8c4.2,0,6.8,2,6.8,5.7v11.2h-2.6V80.1z M1323.7,75.2v-1.5
		h-4.9c-2.7,0-4,1.2-4,3.1c0,1.9,1.4,3,3.8,3C1321.4,79.9,1323.7,77.8,1323.7,75.2z"/>
	<path class="st4" d="M1354.2,71.2v10.7h-2.8V71.5c0-2.7-1-4.1-3.2-4.1c-2.6,0-4,2-4,4.8v9.6h-2.8V71.6c0-2.7-1.1-4.1-3.1-4.1
		c-2.7,0-4.1,2.3-4.1,5.3v9.1h-2.8V65.4h2.7V67h0.7c0.8-1.3,2.1-2,4.2-2c2,0,3.5,0.7,4.3,2.2h0.7c1-1.5,2.6-2.2,4.6-2.2
		C1352.6,65,1354.2,67.4,1354.2,71.2z"/>
	<path class="st4" d="M1373.6,73.6H1361c0.1,3.9,1.9,6.3,5.3,6.3c2.3,0,3.7-1,4.2-2.6h2.8c-0.5,2.8-2.9,5-7,5c-5.1,0-8-3.8-8-8.8
		s2.9-8.5,7.9-8.5c4.9,0,7.3,3.6,7.4,7.7V73.6z M1361.2,71.3h9.5c-0.2-2.1-1.8-3.9-4.5-3.9C1363.2,67.4,1361.6,69.2,1361.2,71.3z"/>
	<path class="st4" d="M1402.2,73.6c0,4.9-3,8.7-8.1,8.7c-5.2,0-8.1-3.8-8.1-8.7s2.9-8.7,8.1-8.7C1399.2,65,1402.2,68.8,1402.2,73.6z
		 M1399.4,73.6c0-3.2-1.7-6.2-5.3-6.2c-3.7,0-5.3,3-5.3,6.2s1.7,6.2,5.3,6.2C1397.7,79.9,1399.4,76.9,1399.4,73.6z"/>
	<path class="st4" d="M1416,68h-1.4c-3.3,0-5.3,2-5.3,5.6v8.2h-2.8V65.4h2.7v2h0.7c0.8-1,2.4-2,4.8-2h1.2V68z"/>
	<path class="st4" d="M1069.5,115h-0.7c-1,1.3-2.8,2.2-5.1,2.2c-3.8,0-5.9-2.6-5.9-5.4c0-2.6,1.7-5.5,6.3-5.5h5.4v-0.7
		c0-2-1.1-3.4-4-3.4c-2.5,0-3.7,0.9-3.8,2.4h-2.8c0.2-3,2.8-4.8,6.5-4.8c4.2,0,6.8,2,6.8,5.7v11.2h-2.6V115z M1069.4,110.1v-1.5
		h-4.9c-2.7,0-4,1.2-4,3.1c0,1.9,1.4,3,3.8,3C1067.1,114.7,1069.4,112.7,1069.4,110.1z"/>
	<path class="st4" d="M1089.1,116.7v-9.9c0-3-1.4-4.5-4.2-4.5c-2.9,0-4.9,2.6-4.9,5.5v8.9h-2.8v-16.5h2.7v1.8h0.7
		c0.9-1.3,2.7-2.2,5-2.2c4.1,0,6.3,2.5,6.3,6.4v10.5H1089.1z"/>
	<path class="st4" d="M1112.1,108.5c0,4.9-3,8.7-8.1,8.7c-5.2,0-8.1-3.8-8.1-8.7s2.9-8.7,8.1-8.7
		C1109.2,99.8,1112.1,103.6,1112.1,108.5z M1109.4,108.5c0-3.2-1.7-6.2-5.3-6.2c-3.7,0-5.3,3-5.3,6.2s1.7,6.2,5.3,6.2
		C1107.7,114.7,1109.4,111.7,1109.4,108.5z"/>
	<path class="st4" d="M1124.5,100.3v2.4h-4.2v9.1c0,1.7,0.7,2.5,2.9,2.5h1.2v2.5h-1.3c-3.6,0-5.7-1.1-5.7-4.6v-9.5h-2.8v-2.4h2.8v-5
		h2.8v5H1124.5z"/>
	<path class="st4" d="M1140.9,116.7v-9.9c0-3-1.4-4.5-4.2-4.5c-2.9,0-4.9,2.6-4.9,5.5v8.9h-2.8V93h2.8v9.1h0.7
		c0.9-1.3,2.7-2.2,4.9-2.2c4,0,6.2,2.5,6.2,6.4v10.5H1140.9z"/>
	<path class="st4" d="M1163.1,108.5h-12.6c0.1,3.9,1.9,6.3,5.3,6.3c2.3,0,3.7-1,4.2-2.6h2.8c-0.5,2.8-2.9,5-7,5c-5.1,0-8-3.8-8-8.8
		s2.9-8.5,7.9-8.5c4.9,0,7.3,3.6,7.4,7.7V108.5z M1150.7,106.1h9.5c-0.2-2.1-1.8-3.9-4.5-3.9C1152.7,102.2,1151,104,1150.7,106.1z"
		/>
	<path class="st4" d="M1176.8,102.9h-1.4c-3.3,0-5.3,2-5.3,5.6v8.2h-2.8v-16.5h2.7v2h0.7c0.8-1,2.4-2,4.8-2h1.2V102.9z"/>
	<path class="st4" d="M1192.2,100.3v1.8h0.7c0.9-1.1,2.5-2.2,5.1-2.2c4.5,0,7.2,3.8,7.2,8.7c0,5-2.7,8.7-7.2,8.7c-2.6,0-4.2-1-5-2.2
		h-0.7v8.3h-2.8v-23H1192.2z M1192.3,108.5c0,3.2,1.5,6.2,5.2,6.2c3.3,0,5.1-2.6,5.1-6.2c0-3.7-1.8-6.2-5.1-6.2
		C1193.8,102.2,1192.3,105.3,1192.3,108.5z"/>
	<path class="st4" d="M1219,102.9h-1.4c-3.3,0-5.3,2-5.3,5.6v8.2h-2.8v-16.5h2.7v2h0.7c0.8-1,2.4-2,4.8-2h1.2V102.9z"/>
	<path class="st4" d="M1237.9,108.5c0,4.9-3,8.7-8.1,8.7c-5.2,0-8.1-3.8-8.1-8.7s2.9-8.7,8.1-8.7
		C1234.9,99.8,1237.9,103.6,1237.9,108.5z M1235.1,108.5c0-3.2-1.7-6.2-5.3-6.2c-3.7,0-5.3,3-5.3,6.2s1.7,6.2,5.3,6.2
		C1233.4,114.7,1235.1,111.7,1235.1,108.5z"/>
	<path class="st4" d="M1257,100.3v15.7c0,4.6-2.9,7.6-7.7,7.6c-4.2,0-7-1.8-7.5-5h2.7c0.5,2,2.2,2.7,4.7,2.7c3.4,0,4.9-2.1,4.9-5.4
		v-1.3h-0.7c-0.9,1.1-2.5,2.2-4.9,2.2c-4.5,0-7.3-3.6-7.3-8.4c0-4.8,2.8-8.4,7.3-8.4c2.6,0,4.2,1,5,2.2h0.7v-1.8H1257z
		 M1254.2,108.3c0-3.2-1.7-6-5.2-6c-3.2,0-5.1,2.4-5.1,6c0,3.6,1.8,6,5.1,6C1252.6,114.2,1254.2,111.4,1254.2,108.3z"/>
	<path class="st4" d="M1271.7,102.9h-1.4c-3.3,0-5.3,2-5.3,5.6v8.2h-2.8v-16.5h2.7v2h0.7c0.8-1,2.4-2,4.8-2h1.2V102.9z"/>
	<path class="st4" d="M1285.9,115h-0.7c-1,1.3-2.8,2.2-5.1,2.2c-3.8,0-5.9-2.6-5.9-5.4c0-2.6,1.7-5.5,6.3-5.5h5.4v-0.7
		c0-2-1.1-3.4-4-3.4c-2.5,0-3.7,0.9-3.8,2.4h-2.8c0.2-3,2.8-4.8,6.5-4.8c4.2,0,6.8,2,6.8,5.7v11.2h-2.6V115z M1285.8,110.1v-1.5
		h-4.9c-2.7,0-4,1.2-4,3.1c0,1.9,1.4,3,3.8,3C1283.4,114.7,1285.8,112.7,1285.8,110.1z"/>
	<path class="st4" d="M1316.3,106.1v10.7h-2.8v-10.4c0-2.7-1-4.1-3.2-4.1c-2.6,0-4,2-4,4.8v9.6h-2.8v-10.3c0-2.7-1.1-4.1-3.1-4.1
		c-2.7,0-4.1,2.3-4.1,5.3v9.1h-2.8v-16.5h2.7v1.6h0.7c0.8-1.3,2.1-2,4.2-2c2,0,3.5,0.7,4.3,2.2h0.7c1-1.5,2.6-2.2,4.6-2.2
		C1314.7,99.8,1316.3,102.3,1316.3,106.1z"/>
</g>
<g>
	<path class="st4" d="M226.7,203.6c-0.6,3.2-3.1,5.4-6.9,5.4c-5.1,0-8-3.8-8-8.7c0-5,2.9-8.7,8-8.7c3.9,0,6.3,2.2,6.8,5.2h-2.8
		c-0.5-1.7-1.8-2.8-4.1-2.8c-3.7,0-5.2,2.9-5.2,6.2c0,3.3,1.5,6.3,5.2,6.3c2.4,0,3.7-1.1,4.2-3H226.7z"/>
	<path class="st4" d="M246.1,200.3c0,4.9-3,8.7-8.1,8.7c-5.2,0-8.1-3.8-8.1-8.7s2.9-8.7,8.1-8.7
		C243.1,191.6,246.1,195.4,246.1,200.3z M243.3,200.3c0-3.2-1.7-6.2-5.3-6.2c-3.7,0-5.3,3-5.3,6.2s1.7,6.2,5.3,6.2
		C241.6,206.6,243.3,203.6,243.3,200.3z"/>
	<path class="st4" d="M262.3,208.6v-9.9c0-3-1.4-4.5-4.2-4.5c-2.9,0-4.9,2.6-4.9,5.5v8.9h-2.8v-16.5h2.7v1.8h0.7
		c0.9-1.3,2.7-2.2,5-2.2c4.1,0,6.3,2.5,6.3,6.4v10.5H262.3z"/>
	<path class="st4" d="M268,192.1h2.9l4.6,13.9h1.3l4.4-13.9h2.9l-5.5,16.5h-5.2L268,192.1z"/>
	<path class="st4" d="M301.6,200.3h-12.6c0.1,3.9,1.9,6.3,5.3,6.3c2.3,0,3.7-1,4.2-2.6h2.8c-0.5,2.8-2.9,5-7,5c-5.1,0-8-3.8-8-8.8
		s2.9-8.5,7.9-8.5c4.9,0,7.3,3.6,7.4,7.7V200.3z M289.2,198h9.5c-0.2-2.1-1.8-3.9-4.5-3.9C291.2,194.1,289.6,195.9,289.2,198z"/>
	<path class="st4" d="M315.3,194.7H314c-3.3,0-5.3,2-5.3,5.6v8.2h-2.8v-16.5h2.7v2h0.7c0.8-1,2.4-2,4.8-2h1.2V194.7z"/>
	<path class="st4" d="M328,192.1v2.4h-4.2v9.1c0,1.7,0.7,2.5,2.9,2.5h1.2v2.5h-1.3c-3.6,0-5.7-1.1-5.7-4.6v-9.5h-2.8v-2.4h2.8v-5
		h2.8v5H328z"/>
</g>
<g>
	<path class="st4" d="M1156.2,203.6c-0.6,3.2-3.1,5.4-6.9,5.4c-5.1,0-8-3.8-8-8.7c0-5,2.9-8.7,8-8.7c3.9,0,6.3,2.2,6.8,5.2h-2.8
		c-0.5-1.7-1.8-2.8-4.1-2.8c-3.7,0-5.2,2.9-5.2,6.2c0,3.3,1.5,6.3,5.2,6.3c2.4,0,3.7-1.1,4.2-3H1156.2z"/>
	<path class="st4" d="M1175.6,200.3c0,4.9-3,8.7-8.1,8.7c-5.2,0-8.1-3.8-8.1-8.7s2.9-8.7,8.1-8.7
		C1172.6,191.6,1175.6,195.4,1175.6,200.3z M1172.8,200.3c0-3.2-1.7-6.2-5.3-6.2c-3.7,0-5.3,3-5.3,6.2s1.7,6.2,5.3,6.2
		C1171.1,206.6,1172.8,203.6,1172.8,200.3z"/>
	<path class="st4" d="M1191.8,208.6v-9.9c0-3-1.4-4.5-4.2-4.5c-2.9,0-4.9,2.6-4.9,5.5v8.9h-2.8v-16.5h2.7v1.8h0.7
		c0.9-1.3,2.7-2.2,5-2.2c4.1,0,6.3,2.5,6.3,6.4v10.5H1191.8z"/>
	<path class="st4" d="M1197.5,192.1h2.9l4.6,13.9h1.3l4.4-13.9h2.9l-5.5,16.5h-5.2L1197.5,192.1z"/>
	<path class="st4" d="M1231.1,200.3h-12.6c0.1,3.9,1.9,6.3,5.3,6.3c2.3,0,3.7-1,4.2-2.6h2.8c-0.5,2.8-2.9,5-7,5c-5.1,0-8-3.8-8-8.8
		s2.9-8.5,7.9-8.5c4.9,0,7.3,3.6,7.4,7.7V200.3z M1218.7,198h9.5c-0.2-2.1-1.8-3.9-4.5-3.9C1220.7,194.1,1219.1,195.9,1218.7,198z"
		/>
	<path class="st4" d="M1244.8,194.7h-1.4c-3.3,0-5.3,2-5.3,5.6v8.2h-2.8v-16.5h2.7v2h0.7c0.8-1,2.4-2,4.8-2h1.2V194.7z"/>
	<path class="st4" d="M1257.5,192.1v2.4h-4.2v9.1c0,1.7,0.7,2.5,2.9,2.5h1.2v2.5h-1.3c-3.6,0-5.7-1.1-5.7-4.6v-9.5h-2.8v-2.4h2.8v-5
		h2.8v5H1257.5z"/>
</g>
<g>
	<path class="st4" d="M81.6,232.6c0,6.7-3.8,12.1-10.9,12.1c-7.1,0-10.9-5.4-10.9-12.1c0-6.7,3.8-12.1,10.9-12.1
		C77.8,220.5,81.6,225.9,81.6,232.6z M78.6,232.6c0-4.9-2.4-9.4-7.9-9.4s-7.9,4.5-7.9,9.4s2.4,9.4,7.9,9.4S78.6,237.4,78.6,232.6z"
		/>
	<path class="st4" d="M101.8,236c0,4.9-2.7,8.7-7.2,8.7c-2.6,0-4.2-1-5.1-2.2h-0.7v1.8H86v-23.8h2.8v9.1h0.7c0.9-1.2,2.4-2.2,5-2.2
		C99.1,227.3,101.8,231,101.8,236z M99,236c0-3.7-1.8-6.2-5.1-6.2c-3.7,0-5.2,3-5.2,6.2s1.5,6.2,5.2,6.2C97.2,242.2,99,239.7,99,236
		z"/>
	<path class="st4" d="M102,250.8v-2.4h1.5c2.3,0,3.1-1.2,3.1-3.3v-17.3h2.8v17.4c0,3.6-1.9,5.7-5.3,5.7H102z M106.5,223.5v-3h2.9v3
		H106.5z"/>
	<path class="st4" d="M129.1,236h-12.6c0.1,3.9,1.9,6.3,5.3,6.3c2.3,0,3.7-1,4.2-2.6h2.8c-0.5,2.8-2.9,5-7,5c-5.1,0-8-3.8-8-8.8
		s2.9-8.5,7.9-8.5c4.9,0,7.3,3.6,7.4,7.7V236z M116.7,233.6h9.5c-0.2-2.1-1.8-3.9-4.5-3.9C118.7,229.8,117.1,231.6,116.7,233.6z"/>
	<path class="st4" d="M147.3,239.3c-0.6,3.2-3.1,5.4-6.9,5.4c-5.1,0-8-3.8-8-8.7c0-5,2.9-8.7,8-8.7c3.9,0,6.3,2.2,6.8,5.2h-2.8
		c-0.5-1.7-1.8-2.8-4.1-2.8c-3.7,0-5.2,2.9-5.2,6.2c0,3.3,1.5,6.3,5.2,6.3c2.4,0,3.7-1.1,4.2-3H147.3z"/>
	<path class="st4" d="M159.5,227.8v2.4h-4.2v9.1c0,1.7,0.7,2.5,2.9,2.5h1.2v2.5h-1.3c-3.6,0-5.7-1.1-5.7-4.6v-9.5h-2.8v-2.4h2.8v-5
		h2.8v5H159.5z"/>
</g>
<g>
	<path class="st4" d="M1339.9,233.6c0,6.7-3.8,12.1-10.9,12.1c-7.1,0-10.9-5.4-10.9-12.1c0-6.7,3.8-12.1,10.9-12.1
		C1336.1,221.5,1339.9,226.9,1339.9,233.6z M1336.9,233.6c0-4.9-2.4-9.4-7.9-9.4c-5.6,0-7.9,4.5-7.9,9.4s2.4,9.4,7.9,9.4
		C1334.6,243,1336.9,238.4,1336.9,233.6z"/>
	<path class="st4" d="M1360.1,237c0,4.9-2.7,8.7-7.2,8.7c-2.6,0-4.2-1-5.1-2.2h-0.7v1.8h-2.7v-23.8h2.8v9.1h0.7
		c0.9-1.2,2.4-2.2,5-2.2C1357.4,228.3,1360.1,232,1360.1,237z M1357.3,237c0-3.7-1.8-6.2-5.1-6.2c-3.7,0-5.2,3-5.2,6.2
		s1.5,6.2,5.2,6.2C1355.6,243.2,1357.3,240.7,1357.3,237z"/>
	<path class="st4" d="M1360.3,251.8v-2.4h1.5c2.3,0,3.1-1.2,3.1-3.3v-17.3h2.8v17.4c0,3.6-1.9,5.7-5.3,5.7H1360.3z M1364.8,224.5v-3
		h2.9v3H1364.8z"/>
	<path class="st4" d="M1387.4,237h-12.6c0.1,3.9,1.9,6.3,5.3,6.3c2.3,0,3.7-1,4.2-2.6h2.8c-0.5,2.8-2.9,5-7,5c-5.1,0-8-3.8-8-8.8
		s2.9-8.5,7.9-8.5c4.9,0,7.3,3.6,7.4,7.7V237z M1375,234.6h9.5c-0.2-2.1-1.8-3.9-4.5-3.9C1377,230.8,1375.4,232.6,1375,234.6z"/>
	<path class="st4" d="M1405.7,240.3c-0.6,3.2-3.1,5.4-6.9,5.4c-5.1,0-8-3.8-8-8.7c0-5,2.9-8.7,8-8.7c3.9,0,6.3,2.2,6.8,5.2h-2.8
		c-0.5-1.7-1.8-2.8-4.1-2.8c-3.7,0-5.2,2.9-5.2,6.2c0,3.3,1.5,6.3,5.2,6.3c2.4,0,3.7-1.1,4.2-3H1405.7z"/>
	<path class="st4" d="M1417.8,228.8v2.4h-4.2v9.1c0,1.7,0.7,2.5,2.9,2.5h1.2v2.5h-1.3c-3.6,0-5.7-1.1-5.7-4.6v-9.5h-2.8v-2.4h2.8v-5
		h2.8v5H1417.8z"/>
</g>
<g>
	<rect x="351.7" y="183.9" class="st5" width="174" height="100"/>
	<g>
		<path class="st4" d="M421.6,216c2,0.9,3.3,3,3.3,5.4c0,3.7-2.6,6.6-7.9,6.6h-10.4v-23.3h10.2c4.9,0,7.5,2.7,7.5,5.9
			c0,2.1-0.9,3.8-2.6,4.7V216z M409.5,214.5h7.2c2.6,0,4.5-0.9,4.5-3.7c0-2.6-2.3-3.6-4.6-3.6h-7.1V214.5z M416.8,225.3
			c2.6,0,5.1-0.9,5.1-4.2c0-3-2.4-4.1-5.1-4.1h-7.3v8.2H416.8z"/>
		<path class="st4" d="M430.8,234.5l3.4-8.1l-7-14.9h3l5,10.9h0.8l4.6-10.9h2.9l-9.9,23H430.8z"/>
		<path class="st4" d="M454.7,211.4v2.4h-4.2v9.1c0,1.7,0.7,2.5,2.9,2.5h1.2v2.5h-1.3c-3.6,0-5.7-1.1-5.7-4.6v-9.5H445v-2.4h2.8v-5
			h2.8v5H454.7z"/>
		<path class="st4" d="M473.3,219.6h-12.6c0.1,3.9,1.9,6.3,5.3,6.3c2.3,0,3.7-1,4.2-2.6h2.8c-0.5,2.8-2.9,5-7,5c-5.1,0-8-3.8-8-8.8
			s2.9-8.5,7.9-8.5c4.9,0,7.3,3.6,7.4,7.7V219.6z M461,217.3h9.5c-0.2-2.1-1.8-3.9-4.5-3.9C462.9,213.4,461.3,215.2,461,217.3z"/>
		<path class="st4" d="M394.6,252.8l1.9,0.3c2.9,0.5,4.7,2,4.7,5c0,2.7-2.3,5.2-6.8,5.2c-4.7,0-7-2.1-7.3-5.2h2.8
			c0.3,1.9,1.9,2.8,4.4,2.8s4.1-0.9,4.1-2.7c0-1.4-0.9-2.2-3-2.6l-3.7-0.6c-2.4-0.4-4-1.7-4-4.2c0-2.7,2.1-4.9,6.5-4.9
			c3.9,0,6.1,1.8,6.5,4.7H398c-0.2-1.6-1.8-2.3-3.9-2.3c-2.1,0-3.6,0.8-3.6,2.2c0,1.3,0.8,1.8,2.5,2L394.6,252.8z"/>
		<path class="st4" d="M413.2,246.3v2.4h-4.2v9.1c0,1.7,0.7,2.5,2.9,2.5h1.2v2.5h-1.3c-3.6,0-5.7-1.1-5.7-4.6v-9.5h-2.8v-2.4h2.8v-5
			h2.8v5H413.2z"/>
		<path class="st4" d="M427.2,248.9h-1.4c-3.3,0-5.3,2-5.3,5.6v8.2h-2.8v-16.5h2.7v2h0.7c0.8-1,2.4-2,4.8-2h1.2V248.9z"/>
		<path class="st4" d="M445.1,254.5h-12.6c0.1,3.9,1.9,6.3,5.3,6.3c2.3,0,3.7-1,4.2-2.6h2.8c-0.5,2.8-2.9,5-7,5c-5.1,0-8-3.8-8-8.8
			c0-5.1,2.9-8.5,7.9-8.5c4.9,0,7.3,3.6,7.4,7.7V254.5z M432.7,252.2h9.5c-0.2-2.1-1.8-3.9-4.5-3.9
			C434.7,248.3,433.1,250.1,432.7,252.2z"/>
		<path class="st4" d="M459.9,261h-0.7c-1,1.3-2.8,2.2-5.1,2.2c-3.8,0-5.9-2.6-5.9-5.4c0-2.6,1.7-5.5,6.3-5.5h5.4v-0.7
			c0-2-1.1-3.4-4-3.4c-2.5,0-3.7,0.9-3.8,2.4h-2.8c0.2-3,2.8-4.8,6.5-4.8c4.2,0,6.8,2,6.8,5.7v11.2h-2.6V261z M459.8,256.1v-1.5
			h-4.9c-2.7,0-4,1.2-4,3.1c0,1.9,1.4,3,3.8,3C457.5,260.8,459.8,258.7,459.8,256.1z"/>
		<path class="st4" d="M490.4,252.1v10.7h-2.8v-10.4c0-2.7-1-4.1-3.2-4.1c-2.6,0-4,2-4,4.8v9.6h-2.8v-10.3c0-2.7-1.1-4.1-3.1-4.1
			c-2.7,0-4.1,2.3-4.1,5.3v9.1h-2.8v-16.5h2.7v1.6h0.7c0.8-1.3,2.1-2,4.2-2c2,0,3.5,0.7,4.3,2.2h0.7c1-1.5,2.6-2.2,4.6-2.2
			C488.7,245.9,490.4,248.3,490.4,252.1z"/>
	</g>
</g>
<g>
	<rect x="947.7" y="183.9" class="st5" width="174" height="100"/>
	<g>
		<path class="st4" d="M1017.6,216c2,0.9,3.3,3,3.3,5.4c0,3.7-2.6,6.6-7.9,6.6h-10.4v-23.3h10.2c4.9,0,7.5,2.7,7.5,5.9
			c0,2.1-0.8,3.8-2.5,4.7V216z M1005.5,214.5h7.2c2.6,0,4.5-0.9,4.5-3.7c0-2.6-2.3-3.6-4.6-3.6h-7.1V214.5z M1012.8,225.3
			c2.6,0,5.1-0.9,5.1-4.2c0-3-2.4-4.1-5.1-4.1h-7.3v8.2H1012.8z"/>
		<path class="st4" d="M1026.8,234.5l3.4-8.1l-7-14.9h3l5,10.9h0.8l4.6-10.9h2.9l-9.9,23H1026.8z"/>
		<path class="st4" d="M1050.7,211.4v2.4h-4.2v9.1c0,1.7,0.7,2.5,2.9,2.5h1.2v2.5h-1.3c-3.6,0-5.7-1.1-5.7-4.6v-9.5h-2.8v-2.4h2.8
			v-5h2.8v5H1050.7z"/>
		<path class="st4" d="M1069.3,219.6h-12.6c0.1,3.9,1.9,6.3,5.3,6.3c2.3,0,3.7-1,4.2-2.6h2.8c-0.5,2.8-2.9,5-7,5c-5.1,0-8-3.8-8-8.8
			s2.9-8.5,7.9-8.5c4.9,0,7.3,3.6,7.4,7.7V219.6z M1056.9,217.3h9.5c-0.2-2.1-1.8-3.9-4.5-3.9
			C1058.9,213.4,1057.3,215.2,1056.9,217.3z"/>
		<path class="st4" d="M990.6,252.8l1.9,0.3c2.9,0.5,4.7,2,4.7,5c0,2.7-2.3,5.2-6.8,5.2c-4.7,0-7-2.1-7.3-5.2h2.8
			c0.3,1.9,1.9,2.8,4.4,2.8c2.5,0,4.1-0.9,4.1-2.7c0-1.4-0.9-2.2-3-2.6l-3.7-0.6c-2.4-0.4-4-1.7-4-4.2c0-2.7,2.1-4.9,6.5-4.9
			c3.9,0,6.1,1.8,6.5,4.7h-2.8c-0.2-1.6-1.8-2.3-3.9-2.3c-2.1,0-3.6,0.8-3.6,2.2c0,1.3,0.8,1.8,2.5,2L990.6,252.8z"/>
		<path class="st4" d="M1009.2,246.3v2.4h-4.2v9.1c0,1.7,0.7,2.5,2.9,2.5h1.2v2.5h-1.3c-3.6,0-5.7-1.1-5.7-4.6v-9.5h-2.8v-2.4h2.8
			v-5h2.8v5H1009.2z"/>
		<path class="st4" d="M1023.2,248.9h-1.4c-3.3,0-5.3,2-5.3,5.6v8.2h-2.8v-16.5h2.7v2h0.7c0.8-1,2.4-2,4.8-2h1.2V248.9z"/>
		<path class="st4" d="M1041.1,254.5h-12.6c0.1,3.9,1.9,6.3,5.3,6.3c2.3,0,3.7-1,4.2-2.6h2.8c-0.5,2.8-2.9,5-7,5c-5.1,0-8-3.8-8-8.8
			c0-5.1,2.9-8.5,7.9-8.5c4.9,0,7.3,3.6,7.4,7.7V254.5z M1028.7,252.2h9.5c-0.2-2.1-1.8-3.9-4.5-3.9
			C1030.7,248.3,1029.1,250.1,1028.7,252.2z"/>
		<path class="st4" d="M1055.9,261h-0.7c-1,1.3-2.8,2.2-5.1,2.2c-3.8,0-5.9-2.6-5.9-5.4c0-2.6,1.7-5.5,6.3-5.5h5.4v-0.7
			c0-2-1.1-3.4-4-3.4c-2.5,0-3.7,0.9-3.8,2.4h-2.8c0.2-3,2.8-4.8,6.5-4.8c4.2,0,6.8,2,6.8,5.7v11.2h-2.6V261z M1055.8,256.1v-1.5
			h-4.9c-2.7,0-4,1.2-4,3.1c0,1.9,1.4,3,3.8,3C1053.5,260.8,1055.8,258.7,1055.8,256.1z"/>
		<path class="st4" d="M1086.4,252.1v10.7h-2.8v-10.4c0-2.7-1-4.1-3.2-4.1c-2.6,0-4,2-4,4.8v9.6h-2.8v-10.3c0-2.7-1.1-4.1-3.1-4.1
			c-2.7,0-4.1,2.3-4.1,5.3v9.1h-2.8v-16.5h2.7v1.6h0.7c0.8-1.3,2.1-2,4.2-2c2,0,3.5,0.7,4.3,2.2h0.7c1-1.5,2.6-2.2,4.6-2.2
			C1084.7,245.9,1086.4,248.3,1086.4,252.1z"/>
	</g>
</g>
</svg>
